<svg width="88" height="63" viewBox="0 0 88 63" fill="none" xmlns="http://www.w3.org/2000/svg">
<g clip-path="url(#clip0_701_91)">
<path d="M71.053 0.173096C76.4236 4.80721 81.7941 9.44494 87.138 14.1097C81.8658 18.8901 76.3844 23.4593 71.0298 28.1563C71.0423 25.0134 71.0101 21.8721 71.0407 18.731C67.6439 18.7364 64.2471 18.7114 60.8521 18.742C59.2198 18.7456 57.6841 19.5679 56.5846 20.7543C46.8322 30.9925 37.0602 41.213 27.3113 51.4549C26.2279 52.5891 24.7173 53.3302 23.1386 53.3158C16.937 53.3555 10.7332 53.2851 4.53328 53.3571C2.22864 53.2886 0.251525 51.1825 0.253313 48.869C0.138894 46.3608 2.33072 44.1988 4.77284 44.1247C9.69821 44.0778 14.6289 44.1518 19.5543 44.0906C21.351 44.0797 22.9332 43.0232 24.0667 41.6888C33.6707 31.6022 43.2854 21.5241 52.8948 11.4409C53.9746 10.2526 55.5264 9.52049 57.1283 9.48443C61.7656 9.46459 66.4051 9.50246 71.0409 9.46622C71.0314 6.36875 71.0066 3.2711 71.053 0.173096Z" fill="url(#paint0_linear_701_91)"/>
<path d="M3.71216 9.46298C10.4164 9.4069 17.144 9.46839 23.8588 9.44855C25.5894 9.37102 27.3521 10.0256 28.5285 11.3292C31.3191 14.2253 34.0796 17.1554 36.8542 20.0673C37.9911 21.2394 38.6152 22.9452 38.2201 24.5716C37.7892 26.5623 35.8996 28.1453 33.865 28.1257C32.4833 28.1888 31.2102 27.4783 30.1929 26.5966C28.2907 24.5518 26.4672 22.4277 24.5347 20.4099C23.4281 19.274 21.837 18.7132 20.2744 18.7348C15.2704 18.7132 10.2664 18.7492 5.26218 18.7186C3.27058 18.6573 1.14669 17.7086 0.411904 15.7145C-0.719768 13.1757 1.01081 9.95163 3.71216 9.46298Z" fill="#8C8C8C"/>
<path d="M44.6151 35.3726C46.3439 33.9789 49.0542 34.1809 50.5792 35.7909C52.6689 37.9511 54.7143 40.1563 56.806 42.3147C57.893 43.4705 59.4591 44.1305 61.0377 44.1143C64.3737 44.1017 67.7096 44.1287 71.0476 44.098C71.0136 41.0128 71.0351 37.9275 71.0404 34.8424C76.4521 39.4657 81.8226 44.1377 87.1842 48.8205C81.8297 53.4997 76.4465 58.1447 71.0545 62.7788C70.9866 59.6232 71.0617 56.4659 71.0208 53.3104C66.3779 53.2671 61.735 53.3066 57.0921 53.2906C55.492 53.2761 53.9509 52.5062 52.88 51.3233C49.8891 48.2092 46.8498 45.1439 43.8892 42.003C42.1747 40.115 42.5555 36.8494 44.6151 35.3726Z" fill="#8C8C8C"/>
</g>
<defs>
<linearGradient id="paint0_linear_701_91" x1="43.6936" y1="0.173096" x2="43.621" y2="56.1684" gradientUnits="userSpaceOnUse">
<stop stop-color="#C12A23"/>
<stop offset="0.932655" stop-color="#102D71" stop-opacity="0.63"/>
<stop offset="0.9999" stop-color="#001AFF" stop-opacity="0.0260417"/>
<stop offset="1" stop-color="#0A3068" stop-opacity="0.66"/>
</linearGradient>
<clipPath id="clip0_701_91">
<rect width="87.2442" height="62.9302" fill="white"/>
</clipPath>
</defs>
</svg>
